<svg xmlns="http://www.w3.org/2000/svg" viewBox="0 0 760 254" width="760" height="254" role="img" aria-label="Technique usage on solved extreme puzzles"><rect width="760" height="254" rx="8" fill="#fcfcfb"/><line x1="190.0" y1="18" x2="190.0" y2="214" stroke="#e1e0d9" stroke-width="1"/><text x="190.0" y="230.0" fill="#898781" font-size="11" font-family="system-ui, -apple-system, Segoe UI, sans-serif" text-anchor="middle" font-weight="400">0</text><line x1="356.7" y1="18" x2="356.7" y2="214" stroke="#e1e0d9" stroke-width="1"/><text x="356.7" y="230.0" fill="#898781" font-size="11" font-family="system-ui, -apple-system, Segoe UI, sans-serif" text-anchor="middle" font-weight="400">20</text><line x1="523.3" y1="18" x2="523.3" y2="214" stroke="#e1e0d9" stroke-width="1"/><text x="523.3" y="230.0" fill="#898781" font-size="11" font-family="system-ui, -apple-system, Segoe UI, sans-serif" text-anchor="middle" font-weight="400">40</text><line x1="690.0" y1="18" x2="690.0" y2="214" stroke="#e1e0d9" stroke-width="1"/><text x="690.0" y="230.0" fill="#898781" font-size="11" font-family="system-ui, -apple-system, Segoe UI, sans-serif" text-anchor="middle" font-weight="400">60</text><text x="690.0" y="245.0" fill="#898781" font-size="11" font-family="system-ui, -apple-system, Segoe UI, sans-serif" text-anchor="end" font-weight="400">solved extreme puzzles using the technique (of 89)</text><rect x="190" y="18" width="458.3" height="14" rx="4" fill="#2a78d6"/><rect x="190" y="18" width="6" height="14" fill="#2a78d6"/><text x="180.0" y="29.0" fill="#0b0b0b" font-size="12" font-family="system-ui, -apple-system, Segoe UI, sans-serif" text-anchor="end" font-weight="400">XY-Chain</text><text x="656.3" y="29.0" fill="#52514e" font-size="11.5" font-family="system-ui, -apple-system, Segoe UI, sans-serif" text-anchor="start" font-weight="400">55</text><rect x="190" y="44" width="416.7" height="14" rx="4" fill="#2a78d6"/><rect x="190" y="44" width="6" height="14" fill="#2a78d6"/><text x="180.0" y="55.0" fill="#0b0b0b" font-size="12" font-family="system-ui, -apple-system, Segoe UI, sans-serif" text-anchor="end" font-weight="400">Finned X-Wing</text><text x="614.7" y="55.0" fill="#52514e" font-size="11.5" font-family="system-ui, -apple-system, Segoe UI, sans-serif" text-anchor="start" font-weight="400">50</text><rect x="190" y="70" width="333.3" height="14" rx="4" fill="#2a78d6"/><rect x="190" y="70" width="6" height="14" fill="#2a78d6"/><text x="180.0" y="81.0" fill="#0b0b0b" font-size="12" font-family="system-ui, -apple-system, Segoe UI, sans-serif" text-anchor="end" font-weight="400">ALS-XZ</text><text x="531.3" y="81.0" fill="#52514e" font-size="11.5" font-family="system-ui, -apple-system, Segoe UI, sans-serif" text-anchor="start" font-weight="400">40</text><rect x="190" y="96" width="191.7" height="14" rx="4" fill="#2a78d6"/><rect x="190" y="96" width="6" height="14" fill="#2a78d6"/><text x="180.0" y="107.0" fill="#0b0b0b" font-size="12" font-family="system-ui, -apple-system, Segoe UI, sans-serif" text-anchor="end" font-weight="400">3D Medusa</text><text x="389.7" y="107.0" fill="#52514e" font-size="11.5" font-family="system-ui, -apple-system, Segoe UI, sans-serif" text-anchor="start" font-weight="400">23</text><rect x="190" y="122" width="150.0" height="14" rx="4" fill="#2a78d6"/><rect x="190" y="122" width="6" height="14" fill="#2a78d6"/><text x="180.0" y="133.0" fill="#0b0b0b" font-size="12" font-family="system-ui, -apple-system, Segoe UI, sans-serif" text-anchor="end" font-weight="400">AIC</text><text x="348.0" y="133.0" fill="#52514e" font-size="11.5" font-family="system-ui, -apple-system, Segoe UI, sans-serif" text-anchor="start" font-weight="400">18</text><rect x="190" y="148" width="125.0" height="14" rx="4" fill="#2a78d6"/><rect x="190" y="148" width="6" height="14" fill="#2a78d6"/><text x="180.0" y="159.0" fill="#0b0b0b" font-size="12" font-family="system-ui, -apple-system, Segoe UI, sans-serif" text-anchor="end" font-weight="400">Finned Swordfish</text><text x="323.0" y="159.0" fill="#52514e" font-size="11.5" font-family="system-ui, -apple-system, Segoe UI, sans-serif" text-anchor="start" font-weight="400">15</text><rect x="190" y="174" width="66.7" height="14" rx="4" fill="#2a78d6"/><rect x="190" y="174" width="6" height="14" fill="#2a78d6"/><text x="180.0" y="185.0" fill="#0b0b0b" font-size="12" font-family="system-ui, -apple-system, Segoe UI, sans-serif" text-anchor="end" font-weight="400">X-Chain</text><text x="264.7" y="185.0" fill="#52514e" font-size="11.5" font-family="system-ui, -apple-system, Segoe UI, sans-serif" text-anchor="start" font-weight="400">8</text><rect x="190" y="200" width="8.3" height="14" rx="4" fill="#2a78d6"/><rect x="190" y="200" width="6" height="14" fill="#2a78d6"/><text x="180.0" y="211.0" fill="#0b0b0b" font-size="12" font-family="system-ui, -apple-system, Segoe UI, sans-serif" text-anchor="end" font-weight="400">Unique Rectangle Type 2</text><text x="206.3" y="211.0" fill="#52514e" font-size="11.5" font-family="system-ui, -apple-system, Segoe UI, sans-serif" text-anchor="start" font-weight="400">1</text><line x1="190" y1="18" x2="190" y2="214" stroke="#c3c2b7" stroke-width="1"/></svg>